<svg xmlns="http://www.w3.org/2000/svg" width="188.78" height="71.923" viewBox="0 0 188.78 71.923">
  <g id="logo" transform="translate(-0.7 -1.3)">
    <g id="Group_5" data-name="Group 5" transform="translate(0.7 1.3)">
      <path id="Path_83" data-name="Path 83" d="M58.641,26.9,36.8,27.039v1.113h0l21.7,1.669h.139a10.264,10.264,0,0,0,0-2.921Z" transform="translate(13.421 8.714)" fill="#fff"/>
      <path id="Path_84" data-name="Path 84" d="M17.9,55.8h0a30.213,30.213,0,0,0,3.339.974h0l3.756-14.885a15.231,15.231,0,0,1-1.53-1.391Z" transform="translate(6.028 14.033)" fill="#fff"/>
      <path id="Path_85" data-name="Path 85" d="M6.9,47.5h0c.139.139.139.139.139.278.7.7,1.252,1.391,1.948,2.087.139,0,.139.139.278.278h0L22.759,36.23c-.278-.556-.417-.974-.7-1.53Z" transform="translate(1.725 11.765)" fill="#fff"/>
      <path id="Path_86" data-name="Path 86" d="M22.3,56.768h.278a18.854,18.854,0,0,0,2.782.278h.278l.7-10.851-.556,10.99.974-13.633c-.7-.417-1.391-.835-1.948-1.252Z" transform="translate(7.749 14.737)" fill="#fff"/>
      <path id="Path_87" data-name="Path 87" d="M13.8,54.081h0c.139,0,.139.139.278.139h0a25.939,25.939,0,0,0,2.782,1.391h0L23.816,40.03a14.784,14.784,0,0,1-1.252-1.53Z" transform="translate(4.424 13.251)" fill="#fff"/>
      <path id="Path_88" data-name="Path 88" d="M10.1,51.246h0c.139.139.139.139.278.139.7.556,1.53,1.113,2.226,1.669h0c.139,0,.139.139.278.139h0L23.177,38.03A14.664,14.664,0,0,1,22.2,36.5Z" transform="translate(2.977 12.469)" fill="#fff"/>
      <path id="Path_89" data-name="Path 89" d="M1.2,32.9h0v.278h0a24.229,24.229,0,0,0,.7,3.061l20.728-5.843c0-.417-.139-.974-.139-1.391Z" transform="translate(-0.504 9.535)" fill="#fff"/>
      <path id="Path_90" data-name="Path 90" d="M4.3,43.234h0c0,.139.139.139.139.278h0c.556.835.974,1.53,1.53,2.365h0c0,.139.139.139.139.278h0L22.524,34.191a5.814,5.814,0,0,0-.556-1.391Z" transform="translate(0.708 11.021)" fill="#fff"/>
      <path id="Path_91" data-name="Path 91" d="M22.294,30.8,2.4,38.312h0a31.825,31.825,0,0,0,1.391,3.2h0l18.92-9.182a6.272,6.272,0,0,1-.417-1.53" transform="translate(-0.035 10.239)" fill="#fff"/>
      <path id="Path_92" data-name="Path 92" d="M47.165,44.834h0c.139-.139.139-.139.139-.278.556-.7,1.113-1.53,1.669-2.226,0-.139.139-.139.139-.278h0L47.3,40.8l-2.5,2.087Z" transform="translate(16.55 14.151)" fill="#fff"/>
      <path id="Path_93" data-name="Path 93" d="M49.53,40.978h0c0-.139.139-.139.139-.278h0a25.939,25.939,0,0,0,1.391-2.782l-.974-.417A19.384,19.384,0,0,1,48,40.143Z" transform="translate(17.802 12.86)" fill="#fff"/>
      <path id="Path_94" data-name="Path 94" d="M22.541,27.439V27.3H.7v.278c0,.974.139,1.948.139,2.782h0v.278h0L22.4,28.413v-.974c.139.139.139,0,.139,0" transform="translate(-0.7 8.87)" fill="#fff"/>
      <path id="Path_95" data-name="Path 95" d="M44.261,48.269h0c.139-.139.139-.139.278-.139a26.707,26.707,0,0,0,2.087-1.948l.139-.139h0L44.121,43.4A27.805,27.805,0,0,1,41.2,44.791Z" transform="translate(15.142 15.168)" fill="#fff"/>
      <path id="Path_96" data-name="Path 96" d="M34.791,45.639H33.4l3.061,8.069h0a31.824,31.824,0,0,0,3.2-1.391h0L36.321,45.5a5.216,5.216,0,0,1-1.53.139" transform="translate(12.091 15.989)" fill="#fff"/>
      <path id="Path_97" data-name="Path 97" d="M26.878,56.56h.278a17.737,17.737,0,0,0,2.782-.139h.278L28.965,44.874A16.971,16.971,0,0,1,26.6,43.9Z" transform="translate(9.431 15.363)" fill="#fff"/>
      <path id="Path_98" data-name="Path 98" d="M29.9,45l1.948,10.573h.278a24.228,24.228,0,0,0,3.061-.7h0L32.543,45.7c-.835-.278-1.809-.417-2.643-.7" transform="translate(10.722 15.794)" fill="#fff"/>
      <path id="Path_99" data-name="Path 99" d="M40.678,51.26h0c.139,0,.139-.139.278-.139h0c.835-.556,1.53-.974,2.365-1.53h0a.136.136,0,0,0,.139-.139h0L40.261,45a19.741,19.741,0,0,1-3.061.7Z" transform="translate(13.577 15.794)" fill="#fff"/>
      <path id="Path_100" data-name="Path 100" d="M4.53,14.4h0c0,.139-.139.139-.139.278h0A25.94,25.94,0,0,0,3,17.461H3l19.476,8.764c.139-.417.278-.974.417-1.391Z" transform="translate(0.2 3.824)" fill="#fff"/>
      <path id="Path_101" data-name="Path 101" d="M44.843,13.708,47.9,11.065h0l-.139-.139a26.707,26.707,0,0,0-1.948-2.087L45.678,8.7h0L42.2,12.317a25.3,25.3,0,0,1,2.643,1.391" transform="translate(15.533 1.595)" fill="#fff"/>
      <path id="Path_102" data-name="Path 102" d="M50.191,14.782h0a.136.136,0,0,0-.139-.139h0a22.66,22.66,0,0,0-1.53-2.365h0c0-.139-.139-.139-.139-.278h0L45.6,13.948c.835.7,1.669,1.391,2.5,2.226Z" transform="translate(16.863 2.885)" fill="#fff"/>
      <path id="Path_103" data-name="Path 103" d="M41.317,5.03h0c-.139,0-.139-.139-.278-.139h0A25.94,25.94,0,0,0,38.256,3.5h0L34.5,11.847a20.545,20.545,0,0,1,2.921.139Z" transform="translate(12.521 -0.439)" fill="#fff"/>
      <path id="Path_104" data-name="Path 104" d="M51.761,19h0a31.824,31.824,0,0,0-1.391-3.2h0l-1.669.835a19.88,19.88,0,0,1,1.948,2.782Z" transform="translate(18.076 4.372)" fill="#fff"/>
      <path id="Path_105" data-name="Path 105" d="M52.53,23.439v-.278h0a24.228,24.228,0,0,0-.7-3.061h0L51,20.378c.417.974.835,2.087,1.252,3.2Z" transform="translate(18.975 6.054)" fill="#fff"/>
      <path id="Path_106" data-name="Path 106" d="M36.982,3.074h0A30.212,30.212,0,0,0,33.643,2.1h0L31,12.951c.835-.139,1.809-.278,2.643-.417Z" transform="translate(11.152 -0.987)" fill="#fff"/>
      <path id="Path_107" data-name="Path 107" d="M44.978,7.748h0c-.139-.139-.139-.139-.278-.139-.7-.556-1.53-1.113-2.226-1.669h0c-.139,0-.139-.139-.278-.139h0l-3.9,5.843,2.921.835Z" transform="translate(14.007 0.46)" fill="#fff"/>
      <path id="Path_108" data-name="Path 108" d="M14.282,4.8l-.139.139h0c-.835.556-1.669.974-2.365,1.53h0a.486.486,0,0,1-.278.139h0L22.768,22.189c.278-.417.7-.974.974-1.391Z" transform="translate(3.524 0.069)" fill="#fff"/>
      <path id="Path_109" data-name="Path 109" d="M7.248,10.7h0c-.139.139-.139.139-.139.278-.556.7-1.113,1.53-1.669,2.226h0c0,.139-.139.139-.139.278h0L22.55,25.168c.139-.417.417-.974.556-1.391Z" transform="translate(1.099 2.377)" fill="#fff"/>
      <path id="Path_110" data-name="Path 110" d="M23.264,22.385,10.465,7.5h0l-.139.139A26.707,26.707,0,0,0,8.239,9.587L8.1,9.726h0L22.568,23.777a12.868,12.868,0,0,1,.7-1.391" transform="translate(2.195 1.125)" fill="#fff"/>
      <path id="Path_111" data-name="Path 111" d="M22.839,1.7h-.278a24.229,24.229,0,0,0-3.061.7h0l4.591,16,1.669-1.252Z" transform="translate(6.654 -1.144)" fill="#fff"/>
      <path id="Path_112" data-name="Path 112" d="M27.378,1.3,23.9,1.439l1.53,14.885c.7-.417,1.252-.7,1.948-1.113Z" transform="translate(8.375 -1.3)" fill="#fff"/>
      <path id="Path_113" data-name="Path 113" d="M18.5,2.9h0a31.825,31.825,0,0,0-3.2,1.391h0l7.93,16.137c.417-.417.835-.974,1.252-1.391Z" transform="translate(5.011 -0.674)" fill="#fff"/>
      <path id="Path_114" data-name="Path 114" d="M32.113,1.678h-.278A18.853,18.853,0,0,0,29.052,1.4h-.417L27.8,14.477c.7-.278,1.53-.556,2.365-.835Z" transform="translate(9.9 -1.261)" fill="#fff"/>
      <path id="Path_115" data-name="Path 115" d="M35.1,33.174l16.137,10.99a25.708,25.708,0,0,0,1.948-1.948L35.656,32.2c-.139.278-.417.7-.556.974" transform="translate(12.756 10.787)" fill="#fff"/>
      <path id="Path_116" data-name="Path 116" d="M18.413,21.556l-.7-.556c-.139.417-.278.7-.417,1.113l.556.278a1.277,1.277,0,0,0,.556-.835" transform="translate(5.793 6.406)" fill="#fff"/>
      <path id="Path_117" data-name="Path 117" d="M17.5,23.039l-.417-.139c-.139.417-.139.7-.278,1.113l.278.139a9.586,9.586,0,0,1,.417-1.113" transform="translate(5.598 7.149)" fill="#fff"/>
      <path id="Path_118" data-name="Path 118" d="M51.2,36.878h0a30.213,30.213,0,0,0,.974-3.339l-.278-.139A31.826,31.826,0,0,1,50.5,36.6Z" transform="translate(18.78 11.256)" fill="#fff"/>
      <path id="Path_119" data-name="Path 119" d="M58.2,32.517,36.778,28.9a3.274,3.274,0,0,1-.278,1.113L57.367,35.3c0-.139.417-1.113.835-2.782Z" transform="translate(13.303 9.496)" fill="#fff"/>
      <path id="Path_120" data-name="Path 120" d="M18.974,21.248a3.688,3.688,0,0,0,.7-.835L18.556,19.3c-.139.417-.417.7-.556,1.113Z" transform="translate(6.067 5.741)" fill="#fff"/>
      <path id="Path_121" data-name="Path 121" d="M33.9,34.535l12.938,12.52c.835-.417,1.53-.974,2.226-1.391L34.6,33.7a3.688,3.688,0,0,1-.7.835" transform="translate(12.286 11.373)" fill="#fff"/>
      <path id="Path_122" data-name="Path 122" d="M35.9,31.574h0L54.82,40.06a20.942,20.942,0,0,0,1.391-2.365L36.317,30.6c-.139.278-.278.7-.417.974" transform="translate(13.069 10.161)" fill="#fff"/>
      <path id="Path_123" data-name="Path 123" d="M20.391,20.182c.278-.278.556-.417.835-.7L19.7,17.4a4.88,4.88,0,0,0-.7,1.113l1.391,1.669h0" transform="translate(6.458 4.998)" fill="#fff"/>
      <path id="Path_124" data-name="Path 124" d="M22.8,18.978,21.274,15.5c-.278.417-.7.7-.974,1.113L21.969,19.4l.835-.417" transform="translate(6.967 4.254)" fill="#fff"/>
      <path id="Path_125" data-name="Path 125" d="M32.6,35.6l9.6,13.216c.835-.278,1.669-.556,2.365-.835L33.435,34.9a3.689,3.689,0,0,1-.835.7" transform="translate(11.778 11.843)" fill="#fff"/>
      <path id="Path_126" data-name="Path 126" d="M19.969,34.5,18.3,36.169c.278.417.417.835.7,1.252L20.8,35.2a3.689,3.689,0,0,1-.835-.7" transform="translate(6.184 11.686)" fill="#fff"/>
      <path id="Path_127" data-name="Path 127" d="M27.03,37.4h-.974l-.417,5.426L25.5,45.469c.556.278,1.113.7,1.809.974L27.03,37.4h0" transform="translate(9.001 12.821)" fill="#fff"/>
      <path id="Path_128" data-name="Path 128" d="M18.613,33.2l-1.113.835.417,1.252,1.391-1.113a2.5,2.5,0,0,0-.7-.974" transform="translate(5.871 11.178)" fill="#fff"/>
      <path id="Path_129" data-name="Path 129" d="M22.948,36.5,21,40.813c.417.417.7.835,1.113,1.252l1.809-5.147a6.782,6.782,0,0,0-.974-.417" transform="translate(7.24 12.469)" fill="#fff"/>
      <path id="Path_130" data-name="Path 130" d="M21.448,35.6,19.5,38.382l.835,1.252,1.948-3.478a2.91,2.91,0,0,1-.835-.556" transform="translate(6.654 12.117)" fill="#fff"/>
      <path id="Path_131" data-name="Path 131" d="M27.7,37.3l.974,10.155c.7.278,1.391.417,2.087.7L28.813,37.3H27.7" transform="translate(9.861 12.782)" fill="#fff"/>
      <path id="Path_132" data-name="Path 132" d="M16.4,28.2h0v1.113h.139A3.457,3.457,0,0,0,16.4,28.2" transform="translate(5.441 9.222)" fill="#fff"/>
      <path id="Path_133" data-name="Path 133" d="M32.074,36c-.278.139-.7.417-.974.556l6.26,12.8a12.251,12.251,0,0,0,2.365-.278Z" transform="translate(11.191 12.273)" fill="#fff"/>
      <path id="Path_134" data-name="Path 134" d="M24.53,37.1,23,43.221c.417.417.974.7,1.391,1.113l1.252-7.095c-.417,0-.7-.139-1.113-.139" transform="translate(8.023 12.703)" fill="#fff"/>
      <path id="Path_135" data-name="Path 135" d="M16.878,30H16.6c0,.417.139.7.139,1.113l.417-.139c-.139-.278-.139-.7-.278-.974" transform="translate(5.519 9.926)" fill="#fff"/>
      <path id="Path_136" data-name="Path 136" d="M17.6,31.6l-.7.278c.139.417.139.835.278,1.113l.974-.556A2.139,2.139,0,0,1,17.6,31.6" transform="translate(5.637 10.552)" fill="#fff"/>
      <path id="Path_137" data-name="Path 137" d="M29.4,37.078l3.339,11.686c.7.139,1.53.139,2.365.278L30.513,36.8a3.274,3.274,0,0,0-1.113.278" transform="translate(10.526 12.586)" fill="#fff"/>
      <path id="Path_138" data-name="Path 138" d="M24.543,18.708,23.152,13.7c-.417.417-.835.7-1.252,1.113l1.53,4.173a3.274,3.274,0,0,0,1.113-.278" transform="translate(7.593 3.55)" fill="#fff"/>
      <path id="Path_139" data-name="Path 139" d="M25.152,19.056a.836.836,0,0,0,.556-.139.836.836,0,0,0,.556-.139L25.43,12.1c-.556.278-.974.7-1.53.974l1.252,5.982Z" transform="translate(8.375 2.924)" fill="#fff"/>
      <path id="Path_140" data-name="Path 140" d="M31.6,21.7c.139.139.278.139.417.278s.278.139.417.278h0l8.208-12.242c-.835-.139-1.53-.278-2.365-.417L31.6,21.7h0" transform="translate(11.387 1.947)" fill="#fff"/>
      <path id="Path_141" data-name="Path 141" d="M32.3,18.7h0" transform="translate(11.661 5.506)" fill="#fff"/>
      <path id="Path_142" data-name="Path 142" d="M33.1,22.7h0a1.921,1.921,0,0,1,.556.417l.139.139.278.278L45.62,11.574a16.97,16.97,0,0,0-2.365-.974Z" transform="translate(11.973 2.338)" fill="#fff"/>
      <path id="Path_143" data-name="Path 143" d="M34.4,23.847a2.91,2.91,0,0,1,.556.835h0L49.842,13.83a12.607,12.607,0,0,0-2.226-1.53L34.4,23.847h0" transform="translate(12.482 3.003)" fill="#fff"/>
      <path id="Path_144" data-name="Path 144" d="M35.4,24.777c.139.278.417.7.556.974L53.9,16.987A24.182,24.182,0,0,0,52.094,14.9L35.4,24.777h0" transform="translate(12.873 4.02)" fill="#fff"/>
      <path id="Path_145" data-name="Path 145" d="M36.478,26.647,56.65,20.8,55.4,18.3,36.2,25.534a4.3,4.3,0,0,1,.278,1.113" transform="translate(13.186 5.35)" fill="#fff"/>
      <path id="Path_146" data-name="Path 146" d="M26.639,19.325h1.113l.556-8.625c-.556.278-1.252.556-1.809.835l.139,7.79h0" transform="translate(9.392 2.377)" fill="#fff"/>
      <path id="Path_147" data-name="Path 147" d="M28.3,19.916h0a3.274,3.274,0,0,1,1.113.278L31.917,9.9a11.59,11.59,0,0,0-2.087.556Z" transform="translate(10.096 2.064)" fill="#fff"/>
      <path id="Path_148" data-name="Path 148" d="M30,20.629c.278.139.7.278.974.417h0L36.121,9.5h0a11.967,11.967,0,0,0-2.226.139L30,20.629Z" transform="translate(10.761 1.907)" fill="#fff"/>
      <path id="Path_149" data-name="Path 149" d="M36.839,27.508,58.4,25.282a20.337,20.337,0,0,0-.7-2.782L36.7,26.4a3.063,3.063,0,0,0,.139,1.113" transform="translate(13.382 6.993)" fill="#fff"/>
      <path id="Path_150" data-name="Path 150" d="M22.463,29.49h0c0-.417.139-.974.139-1.391h0a3.274,3.274,0,0,1,.278-1.113h-.139s.278-1.252.278-1.391h0L2.709,18.5h0a30.213,30.213,0,0,0-.974,3.339h0l21.006,5.286c0,.417-.139.835-.139,1.113L1.178,24.621V24.9A18.853,18.853,0,0,0,.9,27.682V28.1L22.463,29.49Z" transform="translate(-0.622 5.428)" fill="#fff"/>
    </g>
    <g id="Group_8" data-name="Group 8" transform="translate(85.561 12.986)">
      <g id="Group_6" data-name="Group 6" transform="translate(0 37.979)">
        <path id="Path_151" data-name="Path 151" d="M68.378,42.626H62.813v4.73H61.7V37.2h1.113v4.313h5.565V37.2H69.63V47.355H68.378Z" transform="translate(-61.7 -36.922)" fill="#fff"/>
        <path id="Path_152" data-name="Path 152" d="M73.986,37.1A5.286,5.286,0,1,1,68.7,42.386,5.2,5.2,0,0,1,73.986,37.1Zm0,9.46a3.907,3.907,0,0,0,4.034-4.173,3.986,3.986,0,0,0-4.034-4.173,3.907,3.907,0,0,0-4.034,4.173A3.986,3.986,0,0,0,73.986,46.56Z" transform="translate(-58.962 -36.961)" fill="#fff"/>
        <path id="Path_153" data-name="Path 153" d="M86.3,47.395V46h0a5.271,5.271,0,0,1-3.756,1.669A5,5,0,0,1,77.4,42.386,5.038,5.038,0,0,1,82.686,37.1a4.8,4.8,0,0,1,4.591,2.782l-1.113.278a3.728,3.728,0,0,0-3.478-1.948,3.836,3.836,0,0,0-4.034,4.173,3.986,3.986,0,0,0,4.034,4.173A4.275,4.275,0,0,0,86.3,44.751V43.36H83.243V42.247h4.034v5.286H86.3Z" transform="translate(-55.559 -36.961)" fill="#fff"/>
        <path id="Path_154" data-name="Path 154" d="M86.2,37.3h6.678v.974H87.313v3.2h4.452v1.113H87.313V46.2h5.7v1.113H86.2Z" transform="translate(-52.117 -36.883)" fill="#fff"/>
        <path id="Path_155" data-name="Path 155" d="M93.313,44.512c.139,1.391,1.252,2.087,2.921,2.087,1.53,0,2.365-.556,2.365-1.809,0-1.669-1.669-1.809-2.921-2.087-1.391-.278-3.2-.835-3.2-2.921,0-1.809,1.252-2.782,3.478-2.782a3.65,3.65,0,0,1,3.756,2.5l-1.113.278a2.394,2.394,0,0,0-2.643-1.809c-1.53,0-2.226.7-2.226,1.669,0,1.391,1.252,1.669,2.782,1.948s3.339.835,3.339,2.921c0,1.948-1.391,2.921-3.617,2.921-1.669,0-3.617-.556-4.034-2.782Z" transform="translate(-49.77 -37)" fill="#fff"/>
        <path id="Path_156" data-name="Path 156" d="M108.477,44.612A5.163,5.163,0,0,1,98.6,42.386a5,5,0,0,1,5.147-5.286,4.8,4.8,0,0,1,4.591,2.782l-1.113.278a4.052,4.052,0,0,0-7.512,2.226,3.878,3.878,0,0,0,3.9,4.173,3.728,3.728,0,0,0,3.617-2.226Z" transform="translate(-47.266 -36.961)" fill="#fff"/>
        <path id="Path_157" data-name="Path 157" d="M113.878,42.626h-5.565v4.73H107.2V37.2h1.113v4.313h5.565V37.2h1.252V47.355h-1.252Z" transform="translate(-43.902 -36.922)" fill="#fff"/>
        <path id="Path_158" data-name="Path 158" d="M119.486,37.1a5.286,5.286,0,1,1-5.286,5.286A5.115,5.115,0,0,1,119.486,37.1Zm0,9.46a3.907,3.907,0,0,0,4.034-4.173,3.986,3.986,0,0,0-4.034-4.173,3.907,3.907,0,0,0-4.034,4.173A3.986,3.986,0,0,0,119.486,46.56Z" transform="translate(-41.164 -36.961)" fill="#fff"/>
        <path id="Path_159" data-name="Path 159" d="M128.086,37.1a5.286,5.286,0,1,1-5.286,5.286A5.115,5.115,0,0,1,128.086,37.1Zm0,9.46a3.907,3.907,0,0,0,4.034-4.173,3.986,3.986,0,0,0-4.034-4.173,3.907,3.907,0,0,0-4.034,4.173A3.986,3.986,0,0,0,128.086,46.56Z" transform="translate(-37.8 -36.961)" fill="#fff"/>
        <path id="Path_160" data-name="Path 160" d="M131.839,37.3h1.113v9.043h5.286v1.113H131.7V37.3Z" transform="translate(-34.319 -36.883)" fill="#fff"/>
      </g>
      <g id="Group_7" data-name="Group 7">
        <path id="Path_161" data-name="Path 161" d="M61.7,27.072V10.1h5.7V25.264c0,5.565,1.252,10.016,7.234,10.016s7.234-4.452,7.234-10.016V10.1h5.7V27.072c0,8.069-4.173,13.355-12.938,13.355S61.7,35.141,61.7,27.072" transform="translate(-61.7 -9.544)" fill="#fff"/>
        <path id="Path_162" data-name="Path 162" d="M83.6,25.142C83.6,15.821,90.138,9.7,99.042,9.7a21.584,21.584,0,0,1,8.9,1.809l-.7,5.147a22.133,22.133,0,0,0-8.208-1.669c-6.121,0-9.182,4.313-9.182,10.295s3.061,10.295,9.182,10.295a21.562,21.562,0,0,0,8.208-1.669l.7,5.147a21.108,21.108,0,0,1-8.9,1.809c-8.9-.278-15.442-6.4-15.442-15.72" transform="translate(-53.134 -9.7)" fill="#fff"/>
        <path id="Path_163" data-name="Path 163" d="M104.4,40.723V9.7h6.26V35.3h13.772v5.426Z" transform="translate(-44.998 -9.7)" fill="#fff"/>
        <path id="Path_164" data-name="Path 164" d="M122.1,40.723V9.7h6.121V35.3h13.772v5.426Z" transform="translate(-38.074 -9.7)" fill="#fff"/>
      </g>
    </g>
  </g>
</svg>
